HIERARCHY
ROOT Hips
{
	OFFSET	0	0	0
	CHANNELS 6  Xposition Yposition Zposition Xrotation Yrotation Zrotation
	JOINT Spine
	{
		OFFSET	0	0.01	0
		CHANNELS 3  Xrotation Yrotation Zrotation
		JOINT Spine1
		{
			OFFSET	0	0.112902	-0.0100806
			CHANNELS 3  Xrotation Yrotation Zrotation
			JOINT Spine2
			{
				OFFSET	0	0.125906	0.00917332
				CHANNELS 3  Xrotation Yrotation Zrotation
				JOINT Spine3
				{
					OFFSET	0	0.0822574	0.0102822
					CHANNELS 3  Xrotation Yrotation Zrotation
					JOINT Spine4
					{
						OFFSET	0	0.111289	0.0147176
						CHANNELS 3  Xrotation Yrotation Zrotation
						JOINT Neck
						{
							OFFSET	0	0.0723784	-0.0507053
							CHANNELS 3  Xrotation Yrotation Zrotation
							JOINT Head
							{
								OFFSET	0	0.0868945	-0.0260079
								CHANNELS 3  Xrotation Yrotation Zrotation
								End Site
								{
									OFFSET	0	0.181249	-0.00877009
								}
							}
						}
						JOINT LeftShoulder
						{
							OFFSET	-0.0435481	0.032661	-0.0713704
							CHANNELS 3  Xrotation Yrotation Zrotation
							JOINT LeftArm
							{
								OFFSET	-0.0946565	-0.0260078	0.0333669
								CHANNELS 3  Xrotation Yrotation Zrotation
								JOINT LeftForeArm
								{
									OFFSET	-0.314815	-0.0143687	0.0224712
									CHANNELS 3  Xrotation Yrotation Zrotation
									JOINT LeftHand
									{
										OFFSET	-0.239191	-0.0165294	0.0170732
										CHANNELS 3  Xrotation Yrotation Zrotation
										End Site
										{
											OFFSET	-0.0872926	-0.00603241	0.00623045
										}
									}
								}
							}
						}
						JOINT RightShoulder
						{
							OFFSET	0.0435481	0.032661	-0.0713704
							CHANNELS 3  Xrotation Yrotation Zrotation
							JOINT RightArm
							{
								OFFSET	0.0946565	-0.0260078	0.0333669
								CHANNELS 3  Xrotation Yrotation Zrotation
								JOINT RightForeArm
								{
									OFFSET	0.314815	-0.0143687	0.0224712
									CHANNELS 3  Xrotation Yrotation Zrotation
									JOINT RightHand
									{
										OFFSET	0.239191	-0.0165294	0.0170732
										CHANNELS 3  Xrotation Yrotation Zrotation
										End Site
										{
											OFFSET	0.0872926	-0.00603241	0.00623045
										}
									}
								}
							}
						}
					}
				}
			}
		}
	}
	JOINT LeftUpLeg
	{
		OFFSET	-0.0834671	-0.128608	0.000302418
		CHANNELS 3  Xrotation Yrotation Zrotation
		JOINT LeftLeg
		{
			OFFSET	-0.0282207	-0.396991	0.00220161
			CHANNELS 3  Xrotation Yrotation Zrotation
			JOINT LeftFoot
			{
				OFFSET	-0.0117086	-0.411602	0.035426
				CHANNELS 3  Xrotation Yrotation Zrotation
				JOINT LeftToeBase
				{
					OFFSET	-0.0200147	-0.0700513	-0.138702
					CHANNELS 3  Xrotation Yrotation Zrotation
					End Site
					{
						OFFSET	0	0	-0.0422309
					}
				}
			}
		}
	}
	JOINT RightUpLeg
	{
		OFFSET	0.0834671	-0.128608	0.000302418
		CHANNELS 3  Xrotation Yrotation Zrotation
		JOINT RightLeg
		{
			OFFSET	0.0282207	-0.396991	0.00220161
			CHANNELS 3  Xrotation Yrotation Zrotation
			JOINT RightFoot
			{
				OFFSET	0.0117086	-0.411602	0.035426
				CHANNELS 3  Xrotation Yrotation Zrotation
				JOINT RightToeBase
				{
					OFFSET	0.0200147	-0.0700513	-0.138702
					CHANNELS 3  Xrotation Yrotation Zrotation
					End Site
					{
						OFFSET	0	0	-0.0422309
					}
				}
			}
		}
	}
}
MOTION
Frames: 8
Frame Time: 0.02
 -0.0505773 0.992149 0.311638 1.3776 4.90863 0.217989 177.501 -178.944 -179.631 177.5 -178.999 -179.706 177.499 -179.075 -179.712 177.494 -179.184 -179.93 177.495 -178.898 -179.805 0.494628 0.105899 0.482911 0.495372 -0.210138 0.532948 1.31114 -3.37699 2.19727 66.0524 -29.7505 -9.84361 24.2731 -32.2123 11.8503 2.55575 -28.5285 4.24007 3.33271 11.4917 -5.59811 63.7243 28.0471 20.8213 32.5759 29.2432 -15.0036 2.53851 24.0125 -6.38276 18.8269 2.45264 -11.0411 150.73 -179.705 -177.357 4.38261 -1.41684 4.29246 11.5374 -0 -0 14.9997 -4.14149 14.1241 157.371 179.616 174.285 4.02729 -1.86369 -8.34023 8.99893 -0 -0
 -0.0503791 0.980568 0.316729 0.675675 4.43337 0.153499 177.38 -178.994 -179.614 177.379 -179.062 -179.687 177.379 -179.152 -179.695 177.374 -179.28 -179.891 177.375 -178.945 -179.782 1.72281 0.0180231 0.752084 1.72503 -0.599308 0.826965 1.40171 -3.6018 2.35486 67.4496 -29.921 -10.0862 24.5909 -32.5531 12.2285 2.51901 -28.521 4.0106 3.30267 11.9519 -5.49722 64.8364 28.1273 21.3014 32.3935 29.5434 -15.2247 2.57539 24.6107 -6.3274 21.6973 2.34939 -11.5331 147.429 -179.694 -176.716 6.62047 -1.58721 3.88639 11.9593 -0 -0 18.4713 -3.92262 15.0588 153.295 179.574 173.574 6.40302 -0.895267 -8.38246 9.58409 -0 -0
 -0.0502121 0.966815 0.321844 179.985 176.308 -179.781 177.226 -179.124 -179.628 177.225 -179.206 -179.694 177.225 -179.31 -179.703 177.221 -179.462 -179.855 177.222 -179.075 -179.778 2.97082 0.0436267 0.962568 2.97453 -0.745128 1.07567 1.47698 -3.80806 2.48442 68.7392 -30.0347 -10.2118 24.6995 -33.03 12.4848 2.52797 -28.5337 4.06107 3.47237 12.3435 -5.82063 66.2141 28.4596 21.6678 32.6311 30.5717 -15.7687 2.58771 25.3425 -6.04351 24.8099 2.17525 -12.4204 143.335 -179.655 -176.192 9.29477 -1.9582 3.36982 12.2849 -0 -0 22.5456 -3.56674 15.6976 148.569 179.372 173.447 8.5738 0.487937 -8.55103 9.89886 -0 -0
 -0.0509311 0.952551 0.327569 179.273 177.431 -179.709 177.09 -179.307 -179.658 177.089 -179.404 -179.713 177.088 -179.521 -179.723 177.086 -179.697 -179.817 177.086 -179.259 -179.778 4.00383 -0.104057 0.784373 4.00697 -0.857698 0.878904 1.36762 -4.00116 2.2481 69.7644 -30.1073 -10.3975 24.6073 -33.2861 12.5703 2.56784 -28.5331 4.31455 3.6154 12.6529 -6.09578 67.5195 28.813 21.952 32.9271 31.709 -16.5976 2.57008 25.5831 -5.80927 28.1515 1.8795 -13.346 138.869 -179.62 -175.727 11.4591 -2.54673 2.80629 12.2653 -0 -0 26.9509 -3.14971 16.1501 143.609 179.274 173.737 10.2478 2.24656 -9.04151 9.85721 -0 -0
 -0.0506382 0.937268 0.332768 178.519 178.46 -179.815 176.963 -179.464 -179.611 176.962 -179.569 -179.658 176.961 -179.698 -179.669 176.959 -179.876 -179.715 176.959 -179.406 -179.708 4.792 -0.252278 0.569171 4.79445 -0.929734 0.635472 1.35417 -4.08276 2.21331 70.7297 -29.8255 -10.6559 24.7591 -34.0581 12.7837 2.5862 -28.5348 4.43028 3.58971 13.0783 -6.00685 69.0061 29.4118 22.1744 33.0871 31.8977 -16.7279 2.47167 25.7853 -5.07236 31.123 1.63636 -14.28 135.251 -179.416 -175.206 13.7974 -3.6103 2.37965 12.095 -0 -0 31.4876 -2.77453 16.7699 138.207 179.228 174.1 12.0635 4.53403 -9.79291 9.67684 -0 -0
 -0.0511444 0.920396 0.339673 177.958 179.284 -179.946 176.804 -179.608 -179.593 176.803 -179.722 -179.631 176.803 -179.86 -179.644 176.802 179.955 -179.644 176.802 -179.544 -179.667 5.43334 -0.36462 0.54643 5.43631 -1.10294 0.611051 1.1242 -4.26388 1.73673 71.4474 -29.6157 -11.0077 24.8564 -34.6134 13.0789 2.59849 -28.5137 4.51901 3.56339 13.4525 -5.92036 70.2752 29.9012 22.3318 33.1576 32.2562 -17.0184 2.4116 26.1207 -4.51894 34.5107 1.3919 -15.1556 130.826 -179.418 -174.774 15.9204 -4.90672 2.2503 11.7788 -0 -0 35.8676 -2.3742 17.4017 133.108 179.082 174.493 13.7395 5.83521 -10.7167 9.36621 -0 -0
 -0.0501431 0.903497 0.344526 177.331 179.978 179.857 176.698 -179.732 -179.519 176.697 -179.849 -179.55 176.696 -179.995 -179.563 176.696 179.832 -179.527 176.696 -179.653 -179.572 6.21128 -0.257215 0.859615 6.21634 -1.1981 0.987576 1.15086 -4.52023 1.76388 72.1063 -29.1463 -11.1941 25.1546 -35.617 13.6287 2.61406 -28.5437 4.60275 3.48969 13.7114 -5.74309 71.3587 30.3522 22.4445 33.1103 32.6606 -17.1833 2.34738 26.2034 -4.0645 37.9179 1.21972 -15.9895 126.245 -179.334 -174.433 18.084 -5.68229 2.39911 11.2734 -0 -0 40.0121 -1.98216 17.9146 128.436 178.922 174.811 15.3878 5.91946 -11.8484 8.91048 -0 -0
 -0.0496954 0.886799 0.348073 176.615 -179.343 179.739 176.648 -179.849 -179.489 176.647 -179.972 -179.513 176.646 179.873 -179.527 176.647 179.697 -179.454 176.647 -179.762 -179.523 6.79227 -0.0366397 1.27903 6.80048 -1.20202 1.49408 0.954705 -4.65198 1.35803 72.6367 -28.8002 -11.4629 25.2657 -36.0466 13.8573 2.62204 -28.5194 4.66575 3.53483 13.9836 -5.81545 72.3744 30.5561 22.4854 33.2864 33.7367 -17.8337 2.33192 26.6987 -3.72176 41.049 1.04025 -16.7225 122.172 -179.103 -174.323 20.0461 -5.73115 2.81941 10.5845 -0 -0 43.867 -1.67711 18.4096 124.17 178.81 174.954 17.2572 5.96504 -13.1258 8.37598 -0 -0
